<svg xmlns="http://www.w3.org/2000/svg" viewBox="0 0 960 540" role="img" aria-labelledby="title desc">
  <title id="title">HOLO-Codex plugin card</title>
  <desc id="desc">Compact plugin marketplace card for HOLO-Codex.</desc>
  <defs>
    <linearGradient id="surface" x1="0" x2="1" y1="0" y2="1">
      <stop offset="0" stop-color="#ffffff" />
      <stop offset="1" stop-color="#f8fafc" />
    </linearGradient>
    <filter id="shadow" x="-10%" y="-20%" width="120%" height="140%">
      <feDropShadow dx="0" dy="16" stdDeviation="22" flood-color="#0f172a" flood-opacity="0.12" />
    </filter>
    <style>
      .ink { fill: #111827; }
      .muted { fill: #475569; }
      .accent { fill: #f59e0b; }
      .line { stroke: #dbe4ee; }
      .small {
        font-family: Inter, ui-sans-serif, system-ui, -apple-system, BlinkMacSystemFont, "Segoe UI", sans-serif;
        font-size: 24px;
        font-weight: 620;
        fill: #475569;
      }
      .tag {
        font-family: Inter, ui-sans-serif, system-ui, -apple-system, BlinkMacSystemFont, "Segoe UI", sans-serif;
        font-size: 20px;
        font-weight: 650;
        fill: #334155;
      }
    </style>
  </defs>

  <rect width="960" height="540" rx="0" fill="#eef3f8" />
  <rect x="74" y="70" width="812" height="400" rx="38" fill="url(#surface)" filter="url(#shadow)" />

  <g transform="translate(128 126)">
    <rect x="0" y="0" width="132" height="132" rx="32" fill="#f8fafc" stroke="#e2e8f0" />
    <g transform="translate(2 2)">
      <path d="M111.3 52.6A49 49 0 1 1 84 19.2" fill="none" stroke="#111827" stroke-width="8" stroke-linecap="round" />
      <circle cx="98.6" cy="29.4" r="6.5" fill="#f59e0b" />
      <path d="M41 48L62 64L41 80" fill="none" stroke="#111827" stroke-width="8" stroke-linecap="round" stroke-linejoin="round" />
      <path d="M70 81H91" fill="none" stroke="#111827" stroke-width="8" stroke-linecap="round" />
    </g>
  </g>

  <g transform="translate(304 144)">
    <text
      x="0"
      y="58"
      class="ink"
      font-family="'SF Pro Display', 'OpenAI Sans', Inter, ui-sans-serif, system-ui, -apple-system, BlinkMacSystemFont, 'Segoe UI', sans-serif"
      font-size="64"
      letter-spacing="-0.2"
    ><tspan font-weight="740">HOLO</tspan><tspan font-weight="570">_Codex</tspan></text>
    <text
      x="3"
      y="102"
      class="muted"
      font-family="'SF Pro Text', Inter, ui-sans-serif, system-ui, -apple-system, BlinkMacSystemFont, 'Segoe UI', sans-serif"
      font-size="24"
    >Human On Loop Codex</text>
  </g>

  <g transform="translate(128 318)">
    <rect x="0" y="0" width="178" height="50" rx="25" fill="#f8fafc" stroke="#dbe4ee" />
    <circle cx="28" cy="25" r="7" fill="#22c55e" />
    <text x="50" y="32" class="tag">local-first</text>

    <rect x="202" y="0" width="218" height="50" rx="25" fill="#fff7ed" stroke="#fed7aa" />
    <circle cx="230" cy="25" r="7" fill="#f59e0b" />
    <text x="252" y="32" class="tag">human-gated</text>

    <rect x="444" y="0" width="218" height="50" rx="25" fill="#eff6ff" stroke="#bfdbfe" />
    <circle cx="472" cy="25" r="7" fill="#3b82f6" />
    <text x="494" y="32" class="tag">review evidence</text>
  </g>

  <g transform="translate(128 402)">
    <path d="M0 0H704" class="line" stroke-width="1.5" />
    <text x="0" y="42" class="small">Observable PR delivery for local Codex agent loops.</text>
  </g>
</svg>
